<svg width="28" height="28" viewBox="0 0 28 28" fill="none" xmlns="http://www.w3.org/2000/svg">
<path fill-rule="evenodd" clip-rule="evenodd" d="M14 2.04163C14.9184 2.04163 15.7287 2.35618 16.5811 2.86975C17.4132 3.37118 18.3636 4.11239 19.5508 5.03577L21.8848 6.8512C23.3651 8.00256 24.3461 8.73873 24.8711 9.81213C25.3962 10.8857 25.375 12.1121 25.375 13.9879V16.9166C25.375 18.8165 25.3769 20.3296 25.2178 21.5133C25.0552 22.7223 24.7105 23.7188 23.9229 24.5065C23.1352 25.2939 22.1395 25.6389 20.9307 25.8014C19.7469 25.9605 18.2331 25.9586 16.333 25.9586H11.667C9.76689 25.9586 8.25313 25.9605 7.06935 25.8014C5.86057 25.6388 4.86474 25.294 4.07716 24.5065C3.28957 23.7188 2.94478 22.7222 2.78224 21.5133C2.62314 20.3296 2.62501 18.8165 2.62501 16.9166V13.9879C2.62501 12.1121 2.60387 10.8857 3.12892 9.81213C3.65391 8.73869 4.63492 8.00255 6.11525 6.8512L8.44923 5.03577C9.63644 4.11238 10.5868 3.3712 11.419 2.86975C12.2713 2.35616 13.0816 2.04165 14 2.04163ZM18.1904 19.2965C17.8936 18.9153 17.3442 18.8465 16.9629 19.1432C16.1866 19.7474 15.1506 20.1256 14 20.1256C12.8493 20.1255 11.8134 19.7475 11.0371 19.1432C10.6558 18.8466 10.1064 18.9153 9.80958 19.2965C9.51325 19.6778 9.58181 20.2273 9.9629 20.524C11.052 21.3718 12.4671 21.8755 14 21.8756C15.5328 21.8756 16.948 21.3717 18.0371 20.524C18.4184 20.2273 18.4871 19.6778 18.1904 19.2965Z" fill="black"/>
</svg>
