<svg width="28" height="28" viewBox="0 0 28 28" fill="none" xmlns="http://www.w3.org/2000/svg">
<path d="M19.1624 5.3726L20.3174 4.21761C21.2743 3.2608 22.8256 3.2608 23.7824 4.21761C24.7392 5.17444 24.7392 6.72575 23.7824 7.68258L22.6274 8.83757M19.1624 5.3726L11.3932 13.1418C10.8011 13.734 10.3811 14.4758 10.178 15.2881L9.33337 18.6667L12.7119 17.822C13.5243 17.619 14.266 17.1989 14.8582 16.6068L22.6274 8.83757M19.1624 5.3726L22.6274 8.83757" stroke="black" stroke-width="1.75" stroke-linejoin="round"/>
<path d="M22.1666 15.75C22.1666 19.5854 22.1666 21.503 21.1073 22.7938C20.9134 23.0301 20.6968 23.2467 20.4604 23.4406C19.1697 24.5 17.252 24.5 13.4166 24.5H12.8333C8.43355 24.5 6.23369 24.5 4.86685 23.1331C3.50003 21.7664 3.5 19.5664 3.5 15.1666V14.5833C3.5 10.7479 3.5 8.83023 4.55926 7.53949C4.7532 7.3032 4.96988 7.08651 5.20618 6.89258C6.49692 5.83331 8.41461 5.83331 12.25 5.83331" stroke="black" stroke-width="1.75" stroke-linecap="round" stroke-linejoin="round"/>
</svg>
