<svg width="28" height="28" viewBox="0 0 28 28" fill="none" xmlns="http://www.w3.org/2000/svg">
<path fill-rule="evenodd" clip-rule="evenodd" d="M16.2601 2.625C17.1781 2.625 17.9298 2.624 18.5462 2.68457C19.1814 2.74703 19.7416 2.87957 20.2718 3.18457C20.8023 3.48977 21.1988 3.90796 21.5716 4.42578C21.933 4.92788 22.3081 5.57758 22.7679 6.37012L25.013 10.2383C25.4747 11.0341 25.8535 11.685 26.1107 12.25C26.3759 12.8326 26.5413 13.386 26.5413 14C26.5413 14.614 26.3759 15.1674 26.1107 15.75C25.8535 16.315 25.4747 16.9659 25.013 17.7617L22.7679 21.6299C22.3081 22.4224 21.933 23.0721 21.5716 23.5742C21.1988 24.092 20.8023 24.5102 20.2718 24.8154C19.7416 25.1204 19.1814 25.253 18.5462 25.3154C17.9298 25.376 17.1781 25.375 16.2601 25.375H11.7396C10.8218 25.375 10.0707 25.376 9.45442 25.3154C8.81898 25.253 8.25822 25.1206 7.72786 24.8154C7.19741 24.5102 6.80177 24.092 6.42903 23.5742C6.06757 23.0721 5.69165 22.4226 5.23177 21.6299L2.98763 17.7617C2.52596 16.9659 2.14716 16.315 1.88997 15.75C1.62478 15.1674 1.45833 14.614 1.45833 14C1.45833 13.386 1.62478 12.8326 1.88997 12.25C2.14716 11.685 2.52596 10.0341 2.98763 10.2383L5.23177 6.37012C5.69166 5.57741 6.06756 4.92792 6.42903 4.42578C6.80179 3.90798 7.19743 3.48977 7.72786 3.18457C8.25822 2.87943 8.81898 2.74702 9.45442 2.68457C10.0707 2.62403 10.8218 2.625 11.7396 2.625H16.2601ZM13.9993 9.04199C11.2613 9.04235 9.04151 11.262 9.04134 14C9.04151 16.738 11.2613 18.9586 13.9993 18.959C16.7377 18.959 18.9582 16.7383 18.9583 14C18.9582 11.2617 16.7377 9.04199 13.9993 9.04199ZM13.9993 10.792C15.7712 10.792 17.2082 12.2282 17.2083 14C17.2082 15.7718 15.7712 17.209 13.9993 17.209C12.2278 17.2086 10.7915 15.7716 10.7913 14C10.7915 12.2285 12.2278 10.7923 13.9993 10.792Z" fill="black"/>
</svg>
