<svg width="23" height="26" viewBox="0 0 23 26" fill="none" xmlns="http://www.w3.org/2000/svg">
<path fill-rule="evenodd" clip-rule="evenodd" d="M12.709 1.15001e-06C14.5726 8.03046e-07 16.048 -0.00175746 17.2002 0.13379C18.3667 0.271071 19.3358 0.561016 20.1133 1.24121C20.9075 1.93625 21.2618 2.82831 21.4268 3.90137C21.5857 4.93621 21.584 6.2533 21.584 7.875V17.5H21.875C22.3582 17.5 22.75 17.8918 22.75 18.375C22.75 18.8582 22.3582 19.25 21.875 19.25H17.5869L20.292 23.7578C20.5404 24.1721 20.4063 24.7103 19.9922 24.959C19.5779 25.2075 19.0406 25.0724 18.792 24.6582L15.5469 19.25H12.25V23.042C12.2498 23.5251 11.8581 23.917 11.375 23.917C10.8919 23.917 10.5002 23.5251 10.5 23.042V19.25H7.20312L3.95801 24.6582C3.70936 25.0724 3.17212 25.2075 2.75781 24.959C2.34366 24.7103 2.20956 24.1721 2.45801 23.7578L5.16309 19.25H0.875C0.391764 19.25 2.16463e-05 18.8582 0 18.375C0 17.8918 0.391751 17.5 0.875 17.5H1.16699V7.875C1.16699 6.25326 1.16424 4.93622 1.32324 3.90137C1.48818 2.82817 1.84333 1.93629 2.6377 1.24121C3.41522 0.561132 4.38421 0.271027 5.55078 0.13379C6.70305 -0.00171675 8.17836 1.15001e-06 10.042 1.15001e-06H12.709ZM11.0488 4.08496C10.596 4.0739 10.1278 4.11229 9.73242 4.16895C9.25446 4.23775 8.9219 4.68113 8.99023 5.15918C9.05887 5.63736 9.50324 5.96977 9.98145 5.90137C10.3032 5.85529 10.6712 5.82583 11.0059 5.83399C11.1778 5.8382 11.3205 5.85202 11.4326 5.87012C11.3537 5.97638 11.2408 6.10927 11.082 6.26856C9.80625 7.54856 8.19878 9.63445 7.45117 11.2178C7.2626 11.6172 7.10656 12.0301 7.03809 12.417C6.97507 12.7736 6.95302 13.2997 7.2793 13.7412C7.64166 14.2311 8.20548 14.328 8.65723 14.2979C9.10857 14.2676 9.62869 14.1079 10.2021 13.8613C11.2289 13.4199 12.0803 13.175 12.7393 13.0732C13.3963 12.9719 13.7888 13.0245 13.9727 13.0918C13.9303 13.196 13.8221 13.3937 13.543 13.6738C13.2019 14.016 13.2029 14.57 13.5449 14.9111C13.8872 15.252 14.4412 15.2513 14.7822 14.9092C15.2989 14.3907 15.7102 13.7724 15.7471 13.1055C15.7668 12.7482 15.6754 12.3927 15.4561 12.0879C15.2431 11.7924 14.9477 11.5965 14.6416 11.4736C14.0486 11.2359 13.291 11.2173 12.4717 11.3438C11.6317 11.4735 10.6361 11.7691 9.51074 12.2529C9.21707 12.3792 8.98928 12.4538 8.81934 12.498C8.86527 12.3527 8.93433 12.1743 9.0332 11.9648C9.66952 10.6172 11.137 8.6921 12.3213 7.50391C12.8352 6.98826 13.2488 6.42957 13.3154 5.83203C13.3531 5.49298 13.2764 5.15877 13.0781 4.87598C12.8926 4.61166 12.6411 4.44899 12.4199 4.34766C11.9931 4.15235 11.4796 4.09553 11.0488 4.08496Z" fill="black"/>
</svg>
